<svg id="visual" viewBox="0 0 450 450" width="450" height="450" xmlns="http://www.w3.org/2000/svg"
        xmlns:xlink="http://www.w3.org/1999/xlink" version="1.1">
        <rect x="0" y="0" width="450" height="450" fill="#6e1d1d"></rect>
        <g transform="translate(222.50590192099037 237.14148704657208)">
                <path d="M83.9 -134.7C108.3 -114.8 127.4 -90.9 149.1 -62.5C170.9 -34.1 195.3 -1.2 199.2 34.5C203.2 70.2 186.6 108.8 156.6 126C126.6 143.2 83.1 139.1 46.9 141.4C10.6 143.7 -18.3 152.4 -46.7 148.8C-75.1 145.2 -102.9 129.3 -131.8 107.7C-160.7 86.1 -190.7 58.9 -194.4 28.4C-198.1 -2.1 -175.5 -35.9 -155.5 -67.5C-135.6 -99 -118.3 -128.1 -92.9 -147.5C-67.4 -166.9 -33.7 -176.4 -2 -173.4C29.7 -170.3 59.5 -154.5 83.9 -134.7"
                        fill="#952d2d"></path>
        </g>
</svg>