<svg id="visual" viewBox="0 0 450 450" width="450" height="450" xmlns="http://www.w3.org/2000/svg"
        xmlns:xlink="http://www.w3.org/1999/xlink" version="1.1">
        <rect x="0" y="0" width="450" height="450" fill="#6e1d1d"></rect>
        <g transform="translate(230.42750118791506 229.26923651660317)">
                <path d="M73.8 -118.8C95.3 -101 112.2 -80 117.7 -57C123.1 -34 117 -9 109.4 12.9C101.9 34.9 92.9 53.8 80.2 70.8C67.5 87.8 51.1 102.9 29.2 117.8C7.3 132.6 -20.1 147.3 -39.2 139.1C-58.3 131 -69 100 -85 76.5C-101 52.9 -122.3 36.8 -128.5 16.3C-134.8 -4.1 -126.1 -28.8 -114.3 -51.2C-102.6 -73.6 -87.8 -93.6 -68.2 -112.3C-48.7 -131 -24.3 -148.5 0.9 -149.9C26.1 -151.3 52.3 -136.7 73.8 -118.8"
                        fill="#511010"></path>
        </g>
</svg>