<svg id="visual" viewBox="0 0 450 450" width="450" height="450" xmlns="http://www.w3.org/2000/svg"
        xmlns:xlink="http://www.w3.org/1999/xlink" version="1.1">
        <rect x="0" y="0" width="450" height="450" fill="#6e1d1d"></rect>
        <g transform="translate(215.19482925967395 221.3298866907645)">
                <path d="M79.6 -128.1C108.6 -105.3 141.2 -92.3 159.3 -68.2C177.5 -44 181.3 -8.7 179.4 28C177.6 64.7 170 102.7 149.7 134.3C129.5 165.8 96.4 190.9 59.9 199.4C23.5 207.9 -16.4 199.9 -54.8 188C-93.2 176.2 -130.1 160.4 -147.1 132.3C-164.1 104.1 -161.3 63.4 -156.8 28.6C-152.3 -6.1 -146.2 -35.1 -138.4 -67.9C-130.7 -100.7 -121.3 -137.4 -98 -162.8C-74.6 -188.1 -37.3 -202 -6 -192.7C25.3 -183.4 50.7 -150.9 79.6 -128.1"
                        fill="#952d2d"></path>
        </g>
</svg>