<svg id="visual" viewBox="0 0 450 450" width="450" height="450" xmlns="http://www.w3.org/2000/svg"
        xmlns:xlink="http://www.w3.org/1999/xlink" version="1.1">
        <rect x="0" y="0" width="450" height="450" fill="#6e1d1d"></rect>
        <g transform="translate(231.76587735130852 226.4874364878569)">
                <path d="M60.8 -97C76.8 -84.2 86.6 -64.1 101.2 -43C115.8 -22 135.1 0.1 135.5 21.8C135.9 43.4 117.5 64.6 97.9 81.8C78.3 99.1 57.6 112.4 35.2 118.1C12.9 123.8 -11.2 121.9 -38.1 118.9C-65 116 -94.9 112 -116.8 96C-138.8 80 -152.9 52 -148.1 26.7C-143.3 1.4 -119.6 -21.2 -106 -47.4C-92.4 -73.5 -88.9 -103.2 -72.9 -116.1C-56.9 -128.9 -28.5 -125 -3.1 -120.2C22.3 -115.4 44.7 -109.9 60.8 -97"
                        fill="#511010"></path>
        </g>
</svg>