<svg id="visual" viewBox="0 0 900 300" width="900" height="300" xmlns="http://www.w3.org/2000/svg" xmlns:xlink="http://www.w3.org/1999/xlink" version="1.1"><rect x="0" y="0" width="900" height="300" fill="#19692e"></rect><path d="M0 84L15 81.5C30 79 60 74 90 80.5C120 87 150 105 180 106.3C210 107.7 240 92.3 270 84.7C300 77 330 77 360 82.2C390 87.3 420 97.7 450 101.2C480 104.7 510 101.3 540 104.5C570 107.7 600 117.3 630 118.3C660 119.3 690 111.7 720 101.3C750 91 780 78 810 80.3C840 82.7 870 100.3 885 109.2L900 118L900 0L885 0C870 0 840 0 810 0C780 0 750 0 720 0C690 0 660 0 630 0C600 0 570 0 540 0C510 0 480 0 450 0C420 0 390 0 360 0C330 0 300 0 270 0C240 0 210 0 180 0C150 0 120 0 90 0C60 0 30 0 15 0L0 0Z" fill="#095617"></path><path d="M0 71L15 74.8C30 78.7 60 86.3 90 87.2C120 88 150 82 180 76.5C210 71 240 66 270 71.2C300 76.3 330 91.7 360 95.7C390 99.7 420 92.3 450 86C480 79.7 510 74.3 540 69.2C570 64 600 59 630 60.8C660 62.7 690 71.3 720 74C750 76.7 780 73.3 810 76C840 78.7 870 87.3 885 91.7L900 96L900 0L885 0C870 0 840 0 810 0C780 0 750 0 720 0C690 0 660 0 630 0C600 0 570 0 540 0C510 0 480 0 450 0C420 0 390 0 360 0C330 0 300 0 270 0C240 0 210 0 180 0C150 0 120 0 90 0C60 0 30 0 15 0L0 0Z" fill="#02430d"></path><path d="M0 36L15 41.3C30 46.7 60 57.3 90 64.5C120 71.7 150 75.3 180 77.3C210 79.3 240 79.7 270 81C300 82.3 330 84.7 360 81C390 77.3 420 67.7 450 62.8C480 58 510 58 540 58.3C570 58.7 600 59.3 630 62.3C660 65.3 690 70.7 720 68.8C750 67 780 58 810 53.7C840 49.3 870 49.7 885 49.8L900 50L900 0L885 0C870 0 840 0 810 0C780 0 750 0 720 0C690 0 660 0 630 0C600 0 570 0 540 0C510 0 480 0 450 0C420 0 390 0 360 0C330 0 300 0 270 0C240 0 210 0 180 0C150 0 120 0 90 0C60 0 30 0 15 0L0 0Z" fill="#003100"></path><path d="M0 59L15 54.7C30 50.3 60 41.7 90 41.7C120 41.7 150 50.3 180 54.8C210 59.3 240 59.7 270 59C300 58.3 330 56.7 360 55.3C390 54 420 53 450 49C480 45 510 38 540 36.8C570 35.7 600 40.3 630 38.8C660 37.3 690 29.7 720 32.7C750 35.7 780 49.3 810 53.2C840 57 870 51 885 48L900 45L900 0L885 0C870 0 840 0 810 0C780 0 750 0 720 0C690 0 660 0 630 0C600 0 570 0 540 0C510 0 480 0 450 0C420 0 390 0 360 0C330 0 300 0 270 0C240 0 210 0 180 0C150 0 120 0 90 0C60 0 30 0 15 0L0 0Z" fill="#002100"></path><path d="M0 19L15 18.8C30 18.7 60 18.3 90 19.5C120 20.7 150 23.3 180 24.3C210 25.3 240 24.7 270 24.3C300 24 330 24 360 21.3C390 18.7 420 13.3 450 10.5C480 7.7 510 7.3 540 7.5C570 7.7 600 8.3 630 11.2C660 14 690 19 720 24.3C750 29.7 780 35.3 810 37C840 38.7 870 36.3 885 35.2L900 34L900 0L885 0C870 0 840 0 810 0C780 0 750 0 720 0C690 0 660 0 630 0C600 0 570 0 540 0C510 0 480 0 450 0C420 0 390 0 360 0C330 0 300 0 270 0C240 0 210 0 180 0C150 0 120 0 90 0C60 0 30 0 15 0L0 0Z" fill="#000000"></path></svg>