<svg id="visual" viewBox="0 0 900 300" width="900" height="300" xmlns="http://www.w3.org/2000/svg" xmlns:xlink="http://www.w3.org/1999/xlink" version="1.1"><rect x="0" y="0" width="900" height="300" fill="#581d6e"></rect><path d="M0 71L4.8 69.8C9.7 68.7 19.3 66.3 29 68.8C38.7 71.3 48.3 78.7 58 78.3C67.7 78 77.3 70 87 67.7C96.7 65.3 106.3 68.7 116 70.3C125.7 72 135.3 72 145 75C154.7 78 164.3 84 174 81.8C183.7 79.7 193.3 69.3 203 70.3C212.7 71.3 222.3 83.7 232 87.5C241.7 91.3 251.3 86.7 261 83.7C270.7 80.7 280.3 79.3 290 75.3C299.7 71.3 309.3 64.7 319 63.5C328.7 62.3 338.3 66.7 348 72.3C357.7 78 367.3 85 377 88.3C386.7 91.7 396.3 91.3 406 87.8C415.7 84.3 425.3 77.7 435.2 73.2C445 68.7 455 66.3 464.8 70.3C474.7 74.3 484.3 84.7 494 86.2C503.7 87.7 513.3 80.3 523 78.3C532.7 76.3 542.3 79.7 552 82.5C561.7 85.3 571.3 87.7 581 85.3C590.7 83 600.3 76 610 71.5C619.7 67 629.3 65 639 67.7C648.7 70.3 658.3 77.7 668 81C677.7 84.3 687.3 83.7 697 79.3C706.7 75 716.3 67 726 64.8C735.7 62.7 745.3 66.3 755 69.2C764.7 72 774.3 74 784 76.7C793.7 79.3 803.3 82.7 813 82.8C822.7 83 832.3 80 842 75.2C851.7 70.3 861.3 63.7 871 60.3C880.7 57 890.3 57 895.2 57L900 57L900 0L895.2 0C890.3 0 880.7 0 871 0C861.3 0 851.7 0 842 0C832.3 0 822.7 0 813 0C803.3 0 793.7 0 784 0C774.3 0 764.7 0 755 0C745.3 0 735.7 0 726 0C716.3 0 706.7 0 697 0C687.3 0 677.7 0 668 0C658.3 0 648.7 0 639 0C629.3 0 619.7 0 610 0C600.3 0 590.7 0 581 0C571.3 0 561.7 0 552 0C542.3 0 532.7 0 523 0C513.3 0 503.7 0 494 0C484.3 0 474.7 0 464.8 0C455 0 445 0 435.2 0C425.3 0 415.7 0 406 0C396.3 0 386.7 0 377 0C367.3 0 357.7 0 348 0C338.3 0 328.7 0 319 0C309.3 0 299.7 0 290 0C280.3 0 270.7 0 261 0C251.3 0 241.7 0 232 0C222.3 0 212.7 0 203 0C193.3 0 183.7 0 174 0C164.3 0 154.7 0 145 0C135.3 0 125.7 0 116 0C106.3 0 96.7 0 87 0C77.3 0 67.7 0 58 0C48.3 0 38.7 0 29 0C19.3 0 9.7 0 4.8 0L0 0Z" fill="#19692e" stroke-linecap="round" stroke-linejoin="miter"></path></svg>