<svg id="visual" viewBox="0 0 900 300" width="900" height="300" xmlns="http://www.w3.org/2000/svg" xmlns:xlink="http://www.w3.org/1999/xlink" version="1.1"><rect x="0" y="0" width="900" height="300" fill="#733c1f"></rect><path d="M0 49L4.8 50.3C9.7 51.7 19.3 54.3 29 51C38.7 47.7 48.3 38.3 58 35.8C67.7 33.3 77.3 37.7 87 42.3C96.7 47 106.3 52 116 49.7C125.7 47.3 135.3 37.7 145 29C154.7 20.3 164.3 12.7 174 15.5C183.7 18.3 193.3 31.7 203 35.8C212.7 40 222.3 35 232 35.2C241.7 35.3 251.3 40.7 261 35.8C270.7 31 280.3 16 290 8.7C299.7 1.3 309.3 1.7 319 11.2C328.7 20.7 338.3 39.3 348 43.3C357.7 47.3 367.3 36.7 377 29.2C386.7 21.7 396.3 17.3 406 21.8C415.7 26.3 425.3 39.7 435.2 38.7C445 37.7 455 22.3 464.8 15C474.7 7.7 484.3 8.3 494 11.3C503.7 14.3 513.3 19.7 523 19C532.7 18.3 542.3 11.7 552 15.2C561.7 18.7 571.3 32.3 581 32.3C590.7 32.3 600.3 18.7 610 12.7C619.7 6.7 629.3 8.3 639 9.2C648.7 10 658.3 10 668 8.5C677.7 7 687.3 4 697 10.5C706.7 17 716.3 33 726 37.7C735.7 42.3 745.3 35.7 755 29.8C764.7 24 774.3 19 784 21.5C793.7 24 803.3 34 813 41.2C822.7 48.3 832.3 52.7 842 53.7C851.7 54.7 861.3 52.3 871 42.8C880.7 33.3 890.3 16.7 895.2 8.3L900 0L900 0L895.2 0C890.3 0 880.7 0 871 0C861.3 0 851.7 0 842 0C832.3 0 822.7 0 813 0C803.3 0 793.7 0 784 0C774.3 0 764.7 0 755 0C745.3 0 735.7 0 726 0C716.3 0 706.7 0 697 0C687.3 0 677.7 0 668 0C658.3 0 648.7 0 639 0C629.3 0 619.7 0 610 0C600.3 0 590.7 0 581 0C571.3 0 561.7 0 552 0C542.3 0 532.7 0 523 0C513.3 0 503.7 0 494 0C484.3 0 474.7 0 464.8 0C455 0 445 0 435.2 0C425.3 0 415.7 0 406 0C396.3 0 386.7 0 377 0C367.3 0 357.7 0 348 0C338.3 0 328.7 0 319 0C309.3 0 299.7 0 290 0C280.3 0 270.7 0 261 0C251.3 0 241.7 0 232 0C222.3 0 212.7 0 203 0C193.3 0 183.7 0 174 0C164.3 0 154.7 0 145 0C135.3 0 125.7 0 116 0C106.3 0 96.7 0 87 0C77.3 0 67.7 0 58 0C48.3 0 38.7 0 29 0C19.3 0 9.7 0 4.8 0L0 0Z" fill="#581d6e" stroke-linecap="round" stroke-linejoin="miter"></path></svg>