<svg id="visual" viewBox="0 0 900 300" width="900" height="300" xmlns="http://www.w3.org/2000/svg" xmlns:xlink="http://www.w3.org/1999/xlink" version="1.1"><rect x="0" y="0" width="900" height="300" fill="#581d6e"></rect><path d="M0 16L25 23.3C50 30.7 100 45.3 150 55.3C200 65.3 250 70.7 300 61.3C350 52 400 28 450 27.2C500 26.3 550 48.7 600 52.3C650 56 700 41 750 40.5C800 40 850 54 875 61L900 68L900 0L875 0C850 0 800 0 750 0C700 0 650 0 600 0C550 0 500 0 450 0C400 0 350 0 300 0C250 0 200 0 150 0C100 0 50 0 25 0L0 0Z" fill="#19692e" stroke-linecap="round" stroke-linejoin="miter"></path></svg>